<?xml version="1.0" encoding="utf-8"?>
<!-- Generator: Adobe Illustrator 25.4.2, SVG Export Plug-In . SVG Version: 6.00 Build 0)  -->
<svg version="1.1" id="Layer_1" xmlns="http://www.w3.org/2000/svg" xmlns:xlink="http://www.w3.org/1999/xlink" x="0px" y="0px"
	 viewBox="0 0 64 80" style="enable-background:new 0 0 64 80;" xml:space="preserve">
<path d="M42.7,41.3l-4.2-4.2c3.4-4.2,2.8-10.4-1.4-13.9s-10.4-2.8-13.9,1.4S20.4,35,24.6,38.5c3.6,2.9,8.8,2.9,12.4,0l4.2,4.2
	c0.4,0.4,1,0.4,1.4,0C43.1,42.3,43.1,41.7,42.7,41.3z M23,30.8c0-4.3,3.5-7.8,7.8-7.8s7.8,3.5,7.8,7.8s-3.5,7.8-7.8,7.8l0,0
	C26.5,38.7,23,35.2,23,30.8z"/>
</svg>
